<svg width="41" height="41" viewBox="0 0 41 41" fill="none" xmlns="http://www.w3.org/2000/svg">
<g clip-path="url(#clip0_32_249)">
<path d="M15.1557 28.7151H25.5469C25.8706 28.7151 26.1329 28.4527 26.1329 28.1291C26.1329 27.8055 25.8706 27.5432 25.5469 27.5432H15.1557C14.8321 27.5432 14.5698 27.8055 14.5698 28.1291C14.5698 28.4527 14.8321 28.7151 15.1557 28.7151ZM16.9918 15.2727H23.9482C24.4787 15.2727 24.9386 14.9316 25.0927 14.424L26.5527 9.61351C26.6639 9.24734 26.5968 8.86101 26.3689 8.55367C26.141 8.24632 25.7908 8.07007 25.4082 8.07007H24.8885L23.8264 5.41523C23.5824 4.80398 22.9993 4.40906 22.3411 4.40906H18.5989C17.9407 4.40906 17.3576 4.80398 17.1135 5.41492L16.0514 8.06999H15.5318C15.1491 8.06999 14.7989 8.24625 14.571 8.55367C14.343 8.86109 14.2761 9.24734 14.3871 9.61351L15.8472 14.424C16.0013 14.9316 16.4612 15.2727 16.9918 15.2727ZM15.5123 9.25164C15.53 9.22773 18.6993 9.2496 18.722 9.24187C19.0456 9.24187 19.3079 8.97953 19.3079 8.65593C19.3079 8.33234 19.0456 8.06999 18.722 8.06999H17.3136L18.2015 5.85C18.2668 5.68656 18.4228 5.58093 18.5989 5.58093H22.3411C22.5172 5.58093 22.6731 5.68656 22.7384 5.85015L23.6264 8.06999H21.4563C21.1326 8.06999 20.8704 8.33234 20.8704 8.65593C20.8704 8.97953 21.1326 9.24187 21.4563 9.24187C21.476 9.24187 25.4126 9.2314 25.4276 9.25164C25.445 9.27515 23.9713 14.059 23.9713 14.0837C23.9713 14.1357 16.9717 14.0939 16.9686 14.0837C16.9611 14.0591 15.4949 9.27507 15.5123 9.25164ZM15.1557 34.5604C14.8321 34.5604 14.5698 34.8227 14.5698 35.1463C14.5698 35.4699 14.8321 35.7323 15.1557 35.7323H25.5469C25.8706 35.7323 26.1329 35.4699 26.1329 35.1463C26.1329 34.8227 25.8706 34.5604 25.5469 34.5604H15.1557ZM30.8204 32.8026C30.8204 32.479 30.5581 32.2166 30.2344 32.2166H15.1557C14.8321 32.2166 14.5698 32.479 14.5698 32.8026C14.5698 33.1262 14.8321 33.3885 15.1557 33.3885H30.2344C30.5581 33.3885 30.8204 33.1262 30.8204 32.8026ZM33.75 26.5423C34.0737 26.5423 34.336 26.28 34.336 25.9564V3.82312C34.336 2.20765 33.0218 0.893433 31.4063 0.893433H9.53363C7.91816 0.893433 6.60394 2.20765 6.60394 3.82312V37.9637C6.60394 39.5792 7.91816 40.8934 9.53363 40.8934H31.4064C33.0218 40.8934 34.3361 39.5792 34.3361 37.9637V28.6908C34.3361 28.3672 34.0738 28.1048 33.7501 28.1048C33.4265 28.1048 33.1642 28.3672 33.1642 28.6908V37.9637C33.1642 38.933 32.3756 39.7216 31.4064 39.7216H9.53363C8.56433 39.7216 7.77582 38.933 7.77582 37.9637V3.82312C7.77582 2.85382 8.56433 2.06531 9.53363 2.06531H31.4064C32.3756 2.06531 33.1642 2.85382 33.1642 3.82312V25.9564C33.1641 26.28 33.4264 26.5423 33.75 26.5423ZM12.8393 29.1644C12.5508 29.168 12.2482 29.1709 11.9709 29.1723C12.1679 28.9048 12.4171 28.5597 12.7279 28.1157C13.0004 27.7264 13.1932 27.374 13.2434 27.0078C13.2516 26.9478 13.2674 26.8401 13.2674 26.7828C13.2674 25.9098 12.5571 25.1995 11.6841 25.1995C10.9293 25.1995 10.2759 25.7366 10.1305 26.4766C10.0682 26.7941 10.275 27.1021 10.5925 27.1644C10.9101 27.2268 11.2181 27.02 11.2804 26.7024C11.3181 26.5105 11.4879 26.3714 11.6841 26.3714C11.9011 26.3714 12.0795 26.5403 12.0945 26.7536C12.1093 26.9641 12.0019 27.1092 11.7678 27.4437C11.1521 28.3234 10.7849 28.8042 10.5876 29.0625C10.2432 29.5135 10.0786 30.1013 10.6752 30.3002C10.7521 30.3258 12.2989 30.3433 12.854 30.3362C13.1776 30.3322 13.4366 30.0666 13.4325 29.743C13.4285 29.4194 13.1601 29.1582 12.8393 29.1644ZM30.2344 25.1994H15.1557C14.8321 25.1994 14.5698 25.4618 14.5698 25.7854C14.5698 26.109 14.8321 26.3713 15.1557 26.3713H30.2344C30.5581 26.3713 30.8204 26.109 30.8204 25.7854C30.8204 25.4618 30.5581 25.1994 30.2344 25.1994ZM11.7761 32.2166C11.0212 32.2166 10.3679 32.7537 10.2225 33.4937C10.1601 33.8112 10.3669 34.1192 10.6845 34.1816C11.0018 34.2438 11.31 34.0371 11.3724 33.7195C11.41 33.5277 11.5798 33.3885 11.7761 33.3885C12.0029 33.3885 12.1875 33.573 12.1875 33.7999C12.1875 34.0268 12.0029 34.2113 11.7761 34.2113C11.4525 34.2113 11.1901 34.4737 11.1901 34.7973C11.1901 35.1209 11.4525 35.3832 11.7761 35.3832C12.0029 35.3832 12.1875 35.5677 12.1875 35.7946C12.1875 36.0215 12.0029 36.206 11.7761 36.206C11.5719 36.206 11.3968 36.0541 11.3686 35.8524C11.366 35.8335 11.3646 35.8141 11.3646 35.7946C11.3646 35.471 11.1023 35.2087 10.7787 35.2087C10.4551 35.2087 10.1928 35.471 10.1928 35.7946C10.1928 36.6552 10.9069 37.3779 11.7761 37.3779C12.6491 37.3779 13.3593 36.6677 13.3593 35.7946C13.3593 35.4168 13.2259 35.0698 13.0042 34.7973C13.2259 34.5248 13.3593 34.1777 13.3593 33.7999C13.3593 32.9269 12.6491 32.2166 11.7761 32.2166ZM11.7761 23.2823C12.0996 23.2823 12.362 23.02 12.362 22.6964V18.7987C12.362 18.4752 12.0996 18.2128 11.7761 18.2128H10.9429C10.6193 18.2128 10.357 18.4752 10.357 18.7987C10.357 19.1223 10.6193 19.3847 10.9429 19.3847H11.1901V22.6964C11.1901 23.02 11.4525 23.2823 11.7761 23.2823ZM15.1557 21.7284H25.5469C25.8706 21.7284 26.1329 21.4661 26.1329 21.1425C26.1329 20.8189 25.8706 20.5566 25.5469 20.5566H15.1557C14.8321 20.5566 14.5698 20.8189 14.5698 21.1425C14.5698 21.4661 14.8321 21.7284 15.1557 21.7284ZM30.2344 18.2128H15.1557C14.8321 18.2128 14.5698 18.4752 14.5698 18.7987C14.5698 19.1223 14.8321 19.3847 15.1557 19.3847H30.2344C30.5581 19.3847 30.8204 19.1223 30.8204 18.7987C30.8204 18.4752 30.5581 18.2128 30.2344 18.2128Z" fill="#09A66D"/>
</g>
<defs>
<clipPath id="clip0_32_249">
<rect width="40" height="40" fill="white" transform="translate(0.469727 0.893433)"/>
</clipPath>
</defs>
</svg>
